<svg width="23" height="34" viewBox="0 0 23 34" fill="none" xmlns="http://www.w3.org/2000/svg">
<path d="M16 17.8741C16 16.1544 15.3679 14.5051 14.2426 13.2891C13.1174 12.073 11.5913 11.3899 10 11.3899C8.4087 11.3899 6.88258 12.073 5.75736 13.2891C4.63214 14.5051 4 16.1544 4 17.8741C4 25.439 1 27.6004 1 27.6004H19C19 27.6004 16 25.439 16 17.8741Z" stroke="#573F7B" stroke-width="2" stroke-linecap="round" stroke-linejoin="round"/>
<path d="M11.7295 31.9233C11.5537 32.2509 11.3013 32.5228 10.9977 32.7117C10.6941 32.9007 10.3499 33.0002 9.99951 33.0002C9.64914 33.0002 9.30491 32.9007 9.0013 32.7117C8.69768 32.5228 8.44534 32.2509 8.26953 31.9233" stroke="#573F7B" stroke-width="2" stroke-linecap="round" stroke-linejoin="round"/>
<ellipse cx="19" cy="4.00592" rx="4" ry="4.00592" fill="#9272C2"/>
</svg>
